<mxfile host="app.diagrams.net" modified="2023-08-29T15:44:00.330Z" agent="Mozilla/5.0 (Macintosh; Intel Mac OS X 10_15_7) AppleWebKit/605.1.15 (KHTML, like Gecko) Version/16.5.2 Safari/605.1.15" etag="SppX5F9xX_5oDP3dZ4P4" version="21.6.9" type="device">
  <diagram id="R2lEEEUBdFMjLlhIrx00" name="Page-1">
    <mxGraphModel dx="2337" dy="1695" grid="1" gridSize="10" guides="1" tooltips="1" connect="1" arrows="1" fold="1" page="1" pageScale="1" pageWidth="827" pageHeight="583" math="0" shadow="0" extFonts="Permanent Marker^https://fonts.googleapis.com/css?family=Permanent+Marker">
      <root>
        <mxCell id="0" />
        <mxCell id="1" parent="0" />
        <mxCell id="L1TCq9zQZdZeffClUEeR-6" style="edgeStyle=orthogonalEdgeStyle;rounded=0;orthogonalLoop=1;jettySize=auto;html=1;entryX=0.5;entryY=1;entryDx=0;entryDy=0;" edge="1" parent="1" source="L1TCq9zQZdZeffClUEeR-1" target="L1TCq9zQZdZeffClUEeR-3">
          <mxGeometry relative="1" as="geometry" />
        </mxCell>
        <mxCell id="L1TCq9zQZdZeffClUEeR-7" style="rounded=0;orthogonalLoop=1;jettySize=auto;html=1;entryX=0.5;entryY=1;entryDx=0;entryDy=0;dashed=1;exitX=0;exitY=0;exitDx=0;exitDy=0;" edge="1" parent="1" source="L1TCq9zQZdZeffClUEeR-1" target="L1TCq9zQZdZeffClUEeR-2">
          <mxGeometry relative="1" as="geometry" />
        </mxCell>
        <mxCell id="L1TCq9zQZdZeffClUEeR-1" value="&lt;font style=&quot;font-size: 14px;&quot;&gt;TreeSet&amp;lt;E&amp;gt;&lt;/font&gt;" style="rounded=0;whiteSpace=wrap;html=1;fillColor=#f8cecc;strokeColor=#b85450;" vertex="1" parent="1">
          <mxGeometry x="-283" y="170" width="130" height="60" as="geometry" />
        </mxCell>
        <mxCell id="L1TCq9zQZdZeffClUEeR-13" style="edgeStyle=orthogonalEdgeStyle;rounded=0;orthogonalLoop=1;jettySize=auto;html=1;entryX=0.5;entryY=1;entryDx=0;entryDy=0;" edge="1" parent="1" source="L1TCq9zQZdZeffClUEeR-2" target="L1TCq9zQZdZeffClUEeR-12">
          <mxGeometry relative="1" as="geometry" />
        </mxCell>
        <mxCell id="L1TCq9zQZdZeffClUEeR-2" value="&lt;font style=&quot;font-size: 14px;&quot;&gt;interface&lt;br&gt;NavigableSet&lt;/font&gt;&lt;span style=&quot;font-size: 14px;&quot;&gt;&amp;lt;E&amp;gt;&lt;/span&gt;" style="rounded=0;whiteSpace=wrap;html=1;fillColor=#dae8fc;strokeColor=#6c8ebf;" vertex="1" parent="1">
          <mxGeometry x="-413" y="60" width="130" height="60" as="geometry" />
        </mxCell>
        <mxCell id="L1TCq9zQZdZeffClUEeR-11" style="rounded=0;orthogonalLoop=1;jettySize=auto;html=1;entryX=0.5;entryY=1;entryDx=0;entryDy=0;dashed=1;exitX=0.5;exitY=0;exitDx=0;exitDy=0;" edge="1" parent="1" source="L1TCq9zQZdZeffClUEeR-3" target="L1TCq9zQZdZeffClUEeR-8">
          <mxGeometry relative="1" as="geometry" />
        </mxCell>
        <mxCell id="L1TCq9zQZdZeffClUEeR-3" value="&lt;font style=&quot;font-size: 14px;&quot;&gt;AbstractSet&amp;lt;E&amp;gt;&lt;/font&gt;" style="rounded=0;whiteSpace=wrap;html=1;fillColor=#d5e8d4;strokeColor=#82b366;" vertex="1" parent="1">
          <mxGeometry x="-203" y="10" width="130" height="60" as="geometry" />
        </mxCell>
        <mxCell id="L1TCq9zQZdZeffClUEeR-16" style="rounded=0;orthogonalLoop=1;jettySize=auto;html=1;exitX=0.5;exitY=0;exitDx=0;exitDy=0;entryX=0.5;entryY=1;entryDx=0;entryDy=0;edgeStyle=orthogonalEdgeStyle;" edge="1" parent="1" source="L1TCq9zQZdZeffClUEeR-8" target="L1TCq9zQZdZeffClUEeR-15">
          <mxGeometry relative="1" as="geometry" />
        </mxCell>
        <mxCell id="L1TCq9zQZdZeffClUEeR-8" value="&lt;font style=&quot;font-size: 14px;&quot;&gt;interface&lt;br&gt;Set&amp;lt;E&amp;gt;&lt;/font&gt;" style="rounded=0;whiteSpace=wrap;html=1;fillColor=#dae8fc;strokeColor=#6c8ebf;" vertex="1" parent="1">
          <mxGeometry x="-203" y="-120" width="130" height="60" as="geometry" />
        </mxCell>
        <mxCell id="L1TCq9zQZdZeffClUEeR-14" style="rounded=0;orthogonalLoop=1;jettySize=auto;html=1;exitX=0.5;exitY=0;exitDx=0;exitDy=0;entryX=0;entryY=0.5;entryDx=0;entryDy=0;" edge="1" parent="1" source="L1TCq9zQZdZeffClUEeR-12" target="L1TCq9zQZdZeffClUEeR-8">
          <mxGeometry relative="1" as="geometry" />
        </mxCell>
        <mxCell id="L1TCq9zQZdZeffClUEeR-12" value="&lt;font style=&quot;font-size: 14px;&quot;&gt;interface SortedSet&amp;lt;E&amp;gt;&lt;/font&gt;" style="rounded=0;whiteSpace=wrap;html=1;fillColor=#dae8fc;strokeColor=#6c8ebf;" vertex="1" parent="1">
          <mxGeometry x="-413" y="-50" width="130" height="60" as="geometry" />
        </mxCell>
        <mxCell id="L1TCq9zQZdZeffClUEeR-15" value="&lt;font style=&quot;font-size: 14px;&quot;&gt;interface&lt;br&gt;Collection&amp;lt;E&amp;gt;&lt;/font&gt;" style="rounded=0;whiteSpace=wrap;html=1;fillColor=#dae8fc;strokeColor=#6c8ebf;" vertex="1" parent="1">
          <mxGeometry x="257" y="-310" width="130" height="60" as="geometry" />
        </mxCell>
        <mxCell id="L1TCq9zQZdZeffClUEeR-22" style="edgeStyle=orthogonalEdgeStyle;rounded=0;orthogonalLoop=1;jettySize=auto;html=1;entryX=0.5;entryY=1;entryDx=0;entryDy=0;" edge="1" parent="1" source="L1TCq9zQZdZeffClUEeR-18" target="L1TCq9zQZdZeffClUEeR-21">
          <mxGeometry relative="1" as="geometry" />
        </mxCell>
        <mxCell id="L1TCq9zQZdZeffClUEeR-18" value="&lt;font style=&quot;font-size: 14px;&quot;&gt;LinkedHashSet&amp;lt;E&amp;gt;&lt;/font&gt;" style="rounded=0;whiteSpace=wrap;html=1;fillColor=#f8cecc;strokeColor=#b85450;" vertex="1" parent="1">
          <mxGeometry x="-113" y="280" width="130" height="60" as="geometry" />
        </mxCell>
        <mxCell id="L1TCq9zQZdZeffClUEeR-24" style="edgeStyle=orthogonalEdgeStyle;rounded=0;orthogonalLoop=1;jettySize=auto;html=1;exitX=0.5;exitY=0;exitDx=0;exitDy=0;entryX=0.5;entryY=1;entryDx=0;entryDy=0;" edge="1" parent="1" source="L1TCq9zQZdZeffClUEeR-21" target="L1TCq9zQZdZeffClUEeR-3">
          <mxGeometry relative="1" as="geometry" />
        </mxCell>
        <mxCell id="L1TCq9zQZdZeffClUEeR-21" value="&lt;font style=&quot;font-size: 14px;&quot;&gt;HashSet&amp;lt;E&amp;gt;&lt;/font&gt;" style="rounded=0;whiteSpace=wrap;html=1;fillColor=#f8cecc;strokeColor=#b85450;" vertex="1" parent="1">
          <mxGeometry x="-113" y="170" width="130" height="60" as="geometry" />
        </mxCell>
        <mxCell id="L1TCq9zQZdZeffClUEeR-27" style="edgeStyle=orthogonalEdgeStyle;rounded=0;orthogonalLoop=1;jettySize=auto;html=1;entryX=0.5;entryY=1;entryDx=0;entryDy=0;" edge="1" parent="1" source="L1TCq9zQZdZeffClUEeR-28" target="L1TCq9zQZdZeffClUEeR-29">
          <mxGeometry relative="1" as="geometry" />
        </mxCell>
        <mxCell id="L1TCq9zQZdZeffClUEeR-28" value="&lt;font style=&quot;font-size: 14px;&quot;&gt;Vector&amp;lt;E&amp;gt;&lt;/font&gt;" style="rounded=0;whiteSpace=wrap;html=1;fillColor=#f8cecc;strokeColor=#b85450;" vertex="1" parent="1">
          <mxGeometry x="257" y="170" width="130" height="60" as="geometry" />
        </mxCell>
        <mxCell id="L1TCq9zQZdZeffClUEeR-39" style="rounded=0;orthogonalLoop=1;jettySize=auto;html=1;exitX=0.5;exitY=0;exitDx=0;exitDy=0;entryX=0.5;entryY=1;entryDx=0;entryDy=0;dashed=1;" edge="1" parent="1" source="L1TCq9zQZdZeffClUEeR-29" target="L1TCq9zQZdZeffClUEeR-36">
          <mxGeometry relative="1" as="geometry" />
        </mxCell>
        <mxCell id="L1TCq9zQZdZeffClUEeR-29" value="&lt;font style=&quot;font-size: 14px;&quot;&gt;AbstractList&amp;lt;E&amp;gt;&lt;/font&gt;" style="rounded=0;whiteSpace=wrap;html=1;fillColor=#d5e8d4;strokeColor=#82b366;" vertex="1" parent="1">
          <mxGeometry x="257" y="10" width="130" height="60" as="geometry" />
        </mxCell>
        <mxCell id="L1TCq9zQZdZeffClUEeR-66" style="edgeStyle=orthogonalEdgeStyle;rounded=0;orthogonalLoop=1;jettySize=auto;html=1;exitX=0.5;exitY=0;exitDx=0;exitDy=0;entryX=0.5;entryY=1;entryDx=0;entryDy=0;" edge="1" parent="1" source="L1TCq9zQZdZeffClUEeR-33" target="L1TCq9zQZdZeffClUEeR-29">
          <mxGeometry relative="1" as="geometry" />
        </mxCell>
        <mxCell id="L1TCq9zQZdZeffClUEeR-33" value="&lt;font style=&quot;font-size: 14px;&quot;&gt;ArrayList&amp;lt;E&amp;gt;&lt;/font&gt;" style="rounded=0;whiteSpace=wrap;html=1;fillColor=#f8cecc;strokeColor=#b85450;" vertex="1" parent="1">
          <mxGeometry x="87" y="170" width="130" height="60" as="geometry" />
        </mxCell>
        <mxCell id="L1TCq9zQZdZeffClUEeR-38" style="rounded=0;orthogonalLoop=1;jettySize=auto;html=1;exitX=0.5;exitY=0;exitDx=0;exitDy=0;entryX=0.5;entryY=1;entryDx=0;entryDy=0;edgeStyle=orthogonalEdgeStyle;" edge="1" parent="1" source="L1TCq9zQZdZeffClUEeR-36" target="L1TCq9zQZdZeffClUEeR-15">
          <mxGeometry relative="1" as="geometry" />
        </mxCell>
        <mxCell id="L1TCq9zQZdZeffClUEeR-36" value="&lt;font style=&quot;font-size: 14px;&quot;&gt;interface&lt;br&gt;List&amp;lt;E&amp;gt;&lt;/font&gt;" style="rounded=0;whiteSpace=wrap;html=1;fillColor=#dae8fc;strokeColor=#6c8ebf;" vertex="1" parent="1">
          <mxGeometry x="257" y="-120" width="130" height="60" as="geometry" />
        </mxCell>
        <mxCell id="L1TCq9zQZdZeffClUEeR-48" value="" style="edgeStyle=orthogonalEdgeStyle;rounded=0;orthogonalLoop=1;jettySize=auto;html=1;" edge="1" parent="1" source="L1TCq9zQZdZeffClUEeR-45" target="L1TCq9zQZdZeffClUEeR-47">
          <mxGeometry relative="1" as="geometry" />
        </mxCell>
        <mxCell id="L1TCq9zQZdZeffClUEeR-51" style="rounded=0;orthogonalLoop=1;jettySize=auto;html=1;exitX=0.5;exitY=0;exitDx=0;exitDy=0;entryX=0.5;entryY=1;entryDx=0;entryDy=0;dashed=1;" edge="1" parent="1" source="L1TCq9zQZdZeffClUEeR-47" target="L1TCq9zQZdZeffClUEeR-50">
          <mxGeometry relative="1" as="geometry" />
        </mxCell>
        <mxCell id="L1TCq9zQZdZeffClUEeR-45" value="&lt;font style=&quot;font-size: 14px;&quot;&gt;LinkedList&amp;lt;E&amp;gt;&lt;/font&gt;" style="rounded=0;whiteSpace=wrap;html=1;fillColor=#f8cecc;strokeColor=#b85450;" vertex="1" parent="1">
          <mxGeometry x="452" y="280" width="130" height="60" as="geometry" />
        </mxCell>
        <mxCell id="L1TCq9zQZdZeffClUEeR-56" style="edgeStyle=orthogonalEdgeStyle;rounded=0;orthogonalLoop=1;jettySize=auto;html=1;exitX=0.5;exitY=0;exitDx=0;exitDy=0;entryX=0.5;entryY=1;entryDx=0;entryDy=0;" edge="1" parent="1" source="L1TCq9zQZdZeffClUEeR-47" target="L1TCq9zQZdZeffClUEeR-29">
          <mxGeometry relative="1" as="geometry" />
        </mxCell>
        <mxCell id="L1TCq9zQZdZeffClUEeR-53" style="rounded=0;orthogonalLoop=1;jettySize=auto;html=1;exitX=0.5;exitY=0;exitDx=0;exitDy=0;entryX=0;entryY=0.5;entryDx=0;entryDy=0;" edge="1" parent="1" source="L1TCq9zQZdZeffClUEeR-50" target="L1TCq9zQZdZeffClUEeR-52">
          <mxGeometry relative="1" as="geometry" />
        </mxCell>
        <mxCell id="L1TCq9zQZdZeffClUEeR-50" value="&lt;font style=&quot;font-size: 14px;&quot;&gt;interface&lt;br&gt;Deque&amp;lt;E&amp;gt;&lt;/font&gt;" style="rounded=0;whiteSpace=wrap;html=1;fillColor=#dae8fc;strokeColor=#6c8ebf;" vertex="1" parent="1">
          <mxGeometry x="557" y="9.999999999999943" width="130" height="60" as="geometry" />
        </mxCell>
        <mxCell id="L1TCq9zQZdZeffClUEeR-54" style="rounded=0;orthogonalLoop=1;jettySize=auto;html=1;exitX=0.5;exitY=0;exitDx=0;exitDy=0;entryX=0.5;entryY=1;entryDx=0;entryDy=0;edgeStyle=orthogonalEdgeStyle;" edge="1" parent="1" source="L1TCq9zQZdZeffClUEeR-52" target="L1TCq9zQZdZeffClUEeR-15">
          <mxGeometry relative="1" as="geometry" />
        </mxCell>
        <mxCell id="L1TCq9zQZdZeffClUEeR-52" value="&lt;font style=&quot;font-size: 14px;&quot;&gt;interface&lt;br&gt;Queue&amp;lt;E&amp;gt;&lt;/font&gt;" style="rounded=0;whiteSpace=wrap;html=1;fillColor=#dae8fc;strokeColor=#6c8ebf;" vertex="1" parent="1">
          <mxGeometry x="727" y="-120" width="130" height="60" as="geometry" />
        </mxCell>
        <mxCell id="L1TCq9zQZdZeffClUEeR-47" value="&lt;font style=&quot;font-size: 14px;&quot;&gt;AbstractSequentialList&amp;lt;E&amp;gt;&lt;/font&gt;" style="rounded=0;whiteSpace=wrap;html=1;fillColor=#d5e8d4;strokeColor=#82b366;" vertex="1" parent="1">
          <mxGeometry x="427" y="170" width="180" height="60" as="geometry" />
        </mxCell>
        <mxCell id="L1TCq9zQZdZeffClUEeR-62" style="rounded=0;orthogonalLoop=1;jettySize=auto;html=1;exitX=0.5;exitY=0;exitDx=0;exitDy=0;entryX=0.5;entryY=1;entryDx=0;entryDy=0;dashed=1;" edge="1" parent="1" source="L1TCq9zQZdZeffClUEeR-61" target="L1TCq9zQZdZeffClUEeR-52">
          <mxGeometry relative="1" as="geometry" />
        </mxCell>
        <mxCell id="L1TCq9zQZdZeffClUEeR-61" value="&lt;font style=&quot;font-size: 14px;&quot;&gt;AbstractQueue&amp;lt;E&amp;gt;&lt;/font&gt;" style="rounded=0;whiteSpace=wrap;html=1;fillColor=#d5e8d4;strokeColor=#82b366;" vertex="1" parent="1">
          <mxGeometry x="727" y="10" width="130" height="60" as="geometry" />
        </mxCell>
        <mxCell id="L1TCq9zQZdZeffClUEeR-65" style="edgeStyle=orthogonalEdgeStyle;rounded=0;orthogonalLoop=1;jettySize=auto;html=1;entryX=0.5;entryY=1;entryDx=0;entryDy=0;" edge="1" parent="1" source="L1TCq9zQZdZeffClUEeR-64" target="L1TCq9zQZdZeffClUEeR-61">
          <mxGeometry relative="1" as="geometry" />
        </mxCell>
        <mxCell id="L1TCq9zQZdZeffClUEeR-64" value="&lt;font style=&quot;font-size: 14px;&quot;&gt;PriorityQueue&amp;lt;E&amp;gt;&lt;/font&gt;" style="rounded=0;whiteSpace=wrap;html=1;fillColor=#f8cecc;strokeColor=#b85450;" vertex="1" parent="1">
          <mxGeometry x="727" y="170" width="130" height="60" as="geometry" />
        </mxCell>
        <mxCell id="L1TCq9zQZdZeffClUEeR-68" value="" style="rounded=0;whiteSpace=wrap;html=1;fillColor=#008a00;fontColor=#ffffff;strokeColor=#005700;" vertex="1" parent="1">
          <mxGeometry x="-93" y="10" width="20" height="20" as="geometry" />
        </mxCell>
        <mxCell id="L1TCq9zQZdZeffClUEeR-69" value="" style="rounded=0;whiteSpace=wrap;html=1;fillColor=#008a00;fontColor=#ffffff;strokeColor=#005700;" vertex="1" parent="1">
          <mxGeometry x="367" y="10" width="20" height="20" as="geometry" />
        </mxCell>
        <mxCell id="L1TCq9zQZdZeffClUEeR-70" value="" style="rounded=0;whiteSpace=wrap;html=1;fillColor=#008a00;fontColor=#ffffff;strokeColor=#005700;" vertex="1" parent="1">
          <mxGeometry x="837" y="10" width="20" height="20" as="geometry" />
        </mxCell>
        <mxCell id="L1TCq9zQZdZeffClUEeR-79" style="edgeStyle=orthogonalEdgeStyle;rounded=0;orthogonalLoop=1;jettySize=auto;html=1;exitX=0.5;exitY=0;exitDx=0;exitDy=0;entryX=0.5;entryY=1;entryDx=0;entryDy=0;" edge="1" parent="1" source="L1TCq9zQZdZeffClUEeR-74" target="L1TCq9zQZdZeffClUEeR-75">
          <mxGeometry relative="1" as="geometry" />
        </mxCell>
        <mxCell id="L1TCq9zQZdZeffClUEeR-84" style="rounded=0;orthogonalLoop=1;jettySize=auto;html=1;exitX=1;exitY=0;exitDx=0;exitDy=0;entryX=0.5;entryY=1;entryDx=0;entryDy=0;dashed=1;" edge="1" parent="1" source="L1TCq9zQZdZeffClUEeR-74" target="L1TCq9zQZdZeffClUEeR-76">
          <mxGeometry relative="1" as="geometry" />
        </mxCell>
        <mxCell id="L1TCq9zQZdZeffClUEeR-74" value="&lt;font style=&quot;font-size: 14px;&quot;&gt;TreeMap&amp;lt;K, V&amp;gt;&lt;/font&gt;" style="rounded=0;whiteSpace=wrap;html=1;fillColor=#f8cecc;strokeColor=#b85450;" vertex="1" parent="1">
          <mxGeometry x="1132.5" y="80" width="130" height="60" as="geometry" />
        </mxCell>
        <mxCell id="L1TCq9zQZdZeffClUEeR-82" style="edgeStyle=orthogonalEdgeStyle;rounded=0;orthogonalLoop=1;jettySize=auto;html=1;exitX=0.5;exitY=0;exitDx=0;exitDy=0;entryX=0.5;entryY=1;entryDx=0;entryDy=0;dashed=1;" edge="1" parent="1" source="L1TCq9zQZdZeffClUEeR-75" target="L1TCq9zQZdZeffClUEeR-80">
          <mxGeometry relative="1" as="geometry" />
        </mxCell>
        <mxCell id="L1TCq9zQZdZeffClUEeR-75" value="&lt;font style=&quot;font-size: 14px;&quot;&gt;AbstractMap&amp;lt;K,V&amp;gt;&lt;/font&gt;" style="rounded=0;whiteSpace=wrap;html=1;fillColor=#d5e8d4;strokeColor=#82b366;" vertex="1" parent="1">
          <mxGeometry x="1042.5" y="-80" width="130" height="60" as="geometry" />
        </mxCell>
        <mxCell id="L1TCq9zQZdZeffClUEeR-78" style="edgeStyle=orthogonalEdgeStyle;rounded=0;orthogonalLoop=1;jettySize=auto;html=1;exitX=0.5;exitY=0;exitDx=0;exitDy=0;entryX=0.5;entryY=1;entryDx=0;entryDy=0;" edge="1" parent="1" source="L1TCq9zQZdZeffClUEeR-76" target="L1TCq9zQZdZeffClUEeR-77">
          <mxGeometry relative="1" as="geometry" />
        </mxCell>
        <mxCell id="L1TCq9zQZdZeffClUEeR-76" value="&lt;font style=&quot;font-size: 14px;&quot;&gt;interface&lt;br&gt;NavigableMap&amp;lt;K,V&amp;gt;&lt;/font&gt;" style="rounded=0;whiteSpace=wrap;html=1;fillColor=#dae8fc;strokeColor=#6c8ebf;" vertex="1" parent="1">
          <mxGeometry x="1250" y="-40" width="130" height="60" as="geometry" />
        </mxCell>
        <mxCell id="L1TCq9zQZdZeffClUEeR-81" style="rounded=0;orthogonalLoop=1;jettySize=auto;html=1;exitX=0.5;exitY=0;exitDx=0;exitDy=0;entryX=1;entryY=0.5;entryDx=0;entryDy=0;" edge="1" parent="1" source="L1TCq9zQZdZeffClUEeR-77" target="L1TCq9zQZdZeffClUEeR-80">
          <mxGeometry relative="1" as="geometry" />
        </mxCell>
        <mxCell id="L1TCq9zQZdZeffClUEeR-77" value="&lt;font style=&quot;font-size: 14px;&quot;&gt;interface&lt;br&gt;SortedMap&amp;lt;K,V&amp;gt;&lt;/font&gt;" style="rounded=0;whiteSpace=wrap;html=1;fillColor=#dae8fc;strokeColor=#6c8ebf;" vertex="1" parent="1">
          <mxGeometry x="1250" y="-150" width="130" height="60" as="geometry" />
        </mxCell>
        <mxCell id="L1TCq9zQZdZeffClUEeR-80" value="&lt;font style=&quot;font-size: 14px;&quot;&gt;interface&lt;br&gt;Map&amp;lt;K,V&amp;gt;&lt;/font&gt;" style="rounded=0;whiteSpace=wrap;html=1;fillColor=#dae8fc;strokeColor=#6c8ebf;" vertex="1" parent="1">
          <mxGeometry x="1042.5" y="-220" width="130" height="60" as="geometry" />
        </mxCell>
        <mxCell id="L1TCq9zQZdZeffClUEeR-87" style="edgeStyle=orthogonalEdgeStyle;rounded=0;orthogonalLoop=1;jettySize=auto;html=1;exitX=0.5;exitY=0;exitDx=0;exitDy=0;entryX=0.5;entryY=1;entryDx=0;entryDy=0;" edge="1" parent="1" source="L1TCq9zQZdZeffClUEeR-85" target="L1TCq9zQZdZeffClUEeR-75">
          <mxGeometry relative="1" as="geometry" />
        </mxCell>
        <mxCell id="L1TCq9zQZdZeffClUEeR-85" value="&lt;font style=&quot;font-size: 14px;&quot;&gt;HashMap&amp;lt;K, V&amp;gt;&lt;/font&gt;" style="rounded=0;whiteSpace=wrap;html=1;fillColor=#f8cecc;strokeColor=#b85450;" vertex="1" parent="1">
          <mxGeometry x="962.5" y="80" width="130" height="60" as="geometry" />
        </mxCell>
        <mxCell id="L1TCq9zQZdZeffClUEeR-88" style="edgeStyle=orthogonalEdgeStyle;rounded=0;orthogonalLoop=1;jettySize=auto;html=1;exitX=0.5;exitY=0;exitDx=0;exitDy=0;entryX=0.5;entryY=1;entryDx=0;entryDy=0;" edge="1" parent="1" source="L1TCq9zQZdZeffClUEeR-86" target="L1TCq9zQZdZeffClUEeR-85">
          <mxGeometry relative="1" as="geometry" />
        </mxCell>
        <mxCell id="L1TCq9zQZdZeffClUEeR-86" value="&lt;font style=&quot;font-size: 14px;&quot;&gt;LinkedHashMap&amp;lt;K, V&amp;gt;&lt;/font&gt;" style="rounded=0;whiteSpace=wrap;html=1;fillColor=#f8cecc;strokeColor=#b85450;" vertex="1" parent="1">
          <mxGeometry x="950" y="200" width="155" height="60" as="geometry" />
        </mxCell>
        <mxCell id="L1TCq9zQZdZeffClUEeR-91" style="edgeStyle=orthogonalEdgeStyle;rounded=0;orthogonalLoop=1;jettySize=auto;html=1;exitX=1;exitY=0.5;exitDx=0;exitDy=0;entryX=0;entryY=0.5;entryDx=0;entryDy=0;dashed=1;" edge="1" parent="1" source="L1TCq9zQZdZeffClUEeR-89" target="L1TCq9zQZdZeffClUEeR-15">
          <mxGeometry relative="1" as="geometry" />
        </mxCell>
        <mxCell id="L1TCq9zQZdZeffClUEeR-89" value="&lt;font style=&quot;font-size: 14px;&quot;&gt;AbstractCollection&amp;lt;E&amp;gt;&lt;/font&gt;" style="rounded=0;whiteSpace=wrap;html=1;fillColor=#d5e8d4;strokeColor=#82b366;" vertex="1" parent="1">
          <mxGeometry x="27" y="-310" width="150" height="60" as="geometry" />
        </mxCell>
        <mxCell id="L1TCq9zQZdZeffClUEeR-93" value="" style="rounded=0;whiteSpace=wrap;html=1;fillColor=#008a00;fontColor=#ffffff;strokeColor=#005700;" vertex="1" parent="1">
          <mxGeometry x="157" y="-270" width="20" height="20" as="geometry" />
        </mxCell>
        <mxCell id="L1TCq9zQZdZeffClUEeR-95" value="&lt;font style=&quot;font-size: 14px;&quot;&gt;&lt;b&gt;Note: &lt;/b&gt;All classes that extend abstract classes of a certain interface also implement this interface, such dependencies have been removed in favor of readability&lt;/font&gt;" style="text;html=1;strokeColor=none;fillColor=none;align=left;verticalAlign=middle;whiteSpace=wrap;rounded=0;" vertex="1" parent="1">
          <mxGeometry x="447" y="-327.5" width="380" height="95" as="geometry" />
        </mxCell>
      </root>
    </mxGraphModel>
  </diagram>
</mxfile>
